<?xml version="1.0" encoding="utf-8"?>
<!-- Generator: Adobe Illustrator 16.0.0, SVG Export Plug-In . SVG Version: 6.00 Build 0)  -->
<!DOCTYPE svg PUBLIC "-//W3C//DTD SVG 1.1//EN" "http://www.w3.org/Graphics/SVG/1.1/DTD/svg11.dtd">
<svg version="1.1" id="Layer_1" xmlns="http://www.w3.org/2000/svg" xmlns:xlink="http://www.w3.org/1999/xlink" x="0px" y="0px"
	 width="1168.5px" height="279.167px" viewBox="0 0 1168.5 279.167" enable-background="new 0 0 1168.5 279.167"
	 xml:space="preserve">
<g>
	<g>
		<path fill="#FFFFFF" d="M120.057,31.03c12.2-14.79,30-24.84,48.98-27.6c18.92-2.97,38.84,1.57,54.77,12.14
			c15.09,9.88,26.57,25.1,31.95,42.31c8.03,24.79,2.41,53.34-14.21,73.36c16.62,7.34,30.65,20.49,38.61,36.88
			c9.04,18.08,10.33,39.811,3.76,58.91c-4.75,13.95-13.58,26.52-25.21,35.59c-14.94,11.87-34.45,17.899-53.48,16.29
			c-15.34-1.1-30.25-7.08-42.21-16.729c-14.79-11.78-24.93-29.261-27.8-47.95c-14.37,13-33.5,20.939-52.98,20.689
			c-17.93,0.38-35.8-6-49.729-17.23c-12.45-9.89-21.68-23.699-26.18-38.939c-5.58-18.189-4.07-38.399,3.99-55.62
			c7.88-17.09,22.1-31.15,39.28-38.83c16.22-7.44,34.831-8.65,52.11-4.52C102.327,62.1,108.587,44.58,120.057,31.03z M142.977,59.6
			c0.08,15.87,0.09,31.75,0,47.62c25.89,0.02,51.78-0.01,77.68,0.02c0.07-15.89,0.03-31.77,0.02-47.65
			C194.777,59.6,168.877,59.57,142.977,59.6z M59.597,164.47c22.431,0.011,44.85-0.039,67.28,0.021
			c0.04-10.58,0.16-21.171-0.07-31.75c-22.39,0.09-44.78,0.02-67.17,0.03C59.527,143.34,59.597,153.9,59.597,164.47z M32.137,143.95
			c-1.76,3.68-3.021,7.58-4.521,11.369c-1.57,3.681-0.88,7.761-1.03,11.641c0.15,2.99-0.59,6.37,1.44,8.9
			c1.31-2.44,2.169-5.11,3.73-7.41c3.29-3.52,9.07-5.22,13.37-2.47c3.54,1.839,5.37,5.569,6.51,9.22c13.6-0.011,27.2,0.1,40.81,0.2
			c0.89-2.41,1.86-4.78,2.96-7.101c-13.8-0.27-27.59-0.28-41.39-0.55c-0.61-8.86,0.05-17.74-0.45-26.59
			c-5.81,0.15-11.62,0.34-17.41,0.84C34.687,142.26,32.657,142.17,32.137,143.95z M38.447,168.25c-7.23,0.96-7.919,12.36-1.26,14.67
			c5.12,2.42,11.29-2.439,10.56-7.91C47.567,170.48,42.777,167.15,38.447,168.25z M100.697,168.73c-4.81,2.06-6.03,9.289-1.86,12.6
			c4.12,4.37,11.99,1.359,12.91-4.36C112.847,171.13,105.977,166.17,100.697,168.73z M112.237,168.11
			c1.42,2.29,2.56,4.739,3.3,7.329c3.91-0.039,7.74-0.939,11.36-2.39c0.02-1.649,0.05-3.31,0.08-4.96
			C122.067,168.12,117.147,168.13,112.237,168.11z M199.977,183.6c-5.15-1.43-10.78-1.76-15.77,0.431
			c-5.22,2.05-9.06,6.43-11.7,11.25c-4.86,0.21-9.811,2.159-12.67,6.26c-4.1,5.33-3.93,13.33,0.4,18.479
			c2.83,3.55,7.34,5.721,11.91,5.55c27.02-0.079,54.04-0.02,81.06-0.05c3.31,0.12,6.78-0.869,9.06-3.399
			c4.49-4.49,3.66-13.07-1.81-16.431c-2.55-1.89-5.82-1.93-8.84-1.64c1.11-5.72,0.94-11.79-1.38-17.2
			c-4-10.069-14.229-17.31-25.11-17.46C214.907,168.98,205.067,174.83,199.977,183.6z"/>
	</g>
	<path fill="#FFFFFF" d="M205.937,63.59c3.19-0.01,6.37-0.01,9.56,0c0.01,3.9,0.01,7.8,0,11.69c-3.19,0.01-6.37,0.01-9.56,0.01
		C205.927,71.39,205.927,67.49,205.937,63.59z"/>
	<path fill="#FFFFFF" d="M163.547,78.39c10.58-0.09,21.16-0.01,31.74-0.06c1.43,0.29,4.23-0.75,3.57,2.12
		c-11.74,0.09-23.47,0.01-35.21,0.04L163.547,78.39z"/>
	<path fill="#FFFFFF" d="M163.297,85.74c0.15-0.49,0.45-1.46,0.59-1.95c10.1,0.02,20.2,0.04,30.3-0.02c1.82,0.12,4.09-0.36,5.21,1.6
		c-4.95,1.35-10.12,0.59-15.18,0.76C177.247,85.99,170.247,86.51,163.297,85.74z"/>
	<path fill="#FFFFFF" d="M328.217,92.09c10.61-5.8,23.25-6.3,35.03-5.06c10.41,1.62,21.46,5.05,28.36,13.54
		c5.41,5.94,7.55,14.04,7.93,21.91c-9.09,0.03-18.18,0.01-27.27,0.01c-0.54-6.11-5.01-11.34-10.93-12.88
		c-5.79-1.39-12.32-1.99-17.82,0.74c-4.15,1.92-6.36,7.94-3.39,11.71c4.39,4.71,10.88,6.37,16.86,8.08
		c12.28,3.89,25.21,7.32,35.43,15.56c14.56,11.27,12.64,36.13-1.77,46.72c-9.12,7.19-21.15,9.03-32.43,9.57
		c-12.73,0.39-26.7-1.53-36.55-10.33c-8.17-6.86-11.58-17.771-11.81-28.15c8.97-0.029,17.94,0.01,26.91-0.02
		c0.81,4.42,1.82,9.39,5.65,12.24c7.24,5.38,17.13,5.709,25.64,3.85c5.49-1.29,10.3-7.811,6.89-13.149
		c-4.3-4.791-10.939-6.25-16.85-8.07c-12.82-3.78-26.48-7.46-36.51-16.811c-7.32-6.66-9.96-17.13-8.9-26.72
		C313.347,105.21,319.627,96.35,328.217,92.09z"/>
	<path fill="#FFFFFF" d="M163.277,89.74c11.89-0.07,23.79-0.09,35.69,0.01c-0.22,0.47-0.66,1.43-0.88,1.9
		c-11.35,0.26-22.73,0.17-34.09,0.04C163.817,91.21,163.457,90.23,163.277,89.74z"/>
	<path fill="#FFFFFF" d="M406.697,89.51c27.99-0.01,55.99-0.01,83.98,0c0,7.57,0.01,15.15,0,22.73c-18.83,0-37.66,0.01-56.49,0
		c0,6.09-0.02,12.19,0.02,18.28c17.16-0.03,34.32-0.01,51.47-0.01c0.01,7.49,0,14.99,0.01,22.49c-17.17,0-34.34,0-51.5,0
		c0,7.67,0,15.33,0,23c19.58,0,39.17-0.01,58.75,0c-0.01,7.67-0.01,15.33,0,23c-28.75,0-57.5,0-86.25,0
		C406.687,162.5,406.687,126,406.697,89.51z"/>
	<path fill="#FFFFFF" d="M502.697,89.51c10.06-0.01,20.12,0,30.19-0.01c13.34,23.09,26.36,46.37,39.99,69.29
		c-0.16-23.09-0.66-46.19-0.94-69.28c8.83-0.01,17.66-0.01,26.49,0c0.01,36.49,0,72.99,0.01,109.49
		c-9.62-0.01-19.24,0.01-28.86-0.01c-13.77-23.68-27.41-47.44-41.39-71.01c0.39,23.68,0.8,47.35,1.27,71.02c-8.92,0-17.84,0-26.76,0
		C502.687,162.5,502.687,126,502.697,89.51z"/>
	<g>
		<path fill="#FFFFFF" d="M611.697,89.51c15.1,0.05,30.21-0.12,45.321,0.08c12.109,0.13,24.93,2.05,34.75,9.69
			c9.488,7.3,14.01,19.21,15.52,30.75c1.67,16.6,0.34,34.22-8.07,48.98c-7.119,11.7-20.24,19.81-34.049,19.99
			c-17.821,0-35.651,0-53.481,0C611.687,162.5,611.687,126,611.697,89.51z M639.437,112.75c-0.01,20.92,0,41.83-0.01,62.75
			c6.88-0.069,13.76,0.15,20.629-0.09c7.781-0.24,15.121-5.721,17.291-13.25c3.1-9.75,2.979-20.29,1.529-30.33
			c-1.051-6.7-4.029-14.08-10.83-16.72C659.006,111.43,648.937,113.18,639.437,112.75z"/>
	</g>
	<path fill="#FFFFFF" d="M32.987,145.64c4.16-1.829,8.94-1.239,13.38-1.43c0.22,4.07,0.2,8.15,0.15,12.229
		c-5.83,1.421-11.85,1.891-17.84,1.931C29.607,153.98,30.887,149.61,32.987,145.64z"/>
</g>
<g>
	<g>
		<path fill="#FFFFFF" d="M916.438,87.32c13.33-2.2,27.73-0.19,39.08,7.42c10.4,7.07,16.85,18.76,19.26,30.92
			c3.26,16.45,1.77,34.22-5.73,49.35c-6.541,13.51-20.4,22.63-35.1,24.671c-12.471,1.859-26.1,0.55-36.791-6.611
			c-10.5-6.689-17.238-18.149-20.068-30.079c-3.051-12.79-2.781-26.34,0.33-39.09c3.059-11.98,9.898-23.5,20.639-30.06
			C903.576,90.28,910.018,88.44,916.438,87.32z M918.617,96.51c-13.529,1.68-24.92,11.9-29.52,24.52
			c-3.98,11.53-4.51,24.06-2.4,36.031c2.109,10.529,6.65,21.35,15.91,27.509c8.648,6.461,20.08,7.391,30.439,5.891
			c9.061-1.43,17.48-6.41,22.891-13.84c8.27-10.56,10-24.57,9.639-37.57c-0.389-12.36-3.969-25.48-13.51-33.95
			C943.256,96.78,930.236,94.78,918.617,96.51z"/>
	</g>
	<path fill="#FFFFFF" d="M719.656,106.5c6.682-9.81,17.561-16.78,29.391-18.23c12.42-1.86,25.891-0.61,36.76,6.09
		c9.23,5.45,14.861,15.58,16.881,25.88c-3.621,0.01-7.23,0.01-10.84,0.02c-3.35-8.68-9.17-17.1-17.98-20.84
		c-7.75-3.51-16.6-3.45-24.76-1.59c-11.221,2.81-20.561,11.55-24.711,22.27c-4.16,9.63-4.398,20.4-3.469,30.69
		c0.699,9.75,3.07,19.71,8.949,27.7c6.26,9.07,17.52,13.579,28.311,13.31c9.459,0.24,19.08-3.26,25.609-10.22
		c5.65-5.82,8.33-13.74,9.701-21.57c3.469-0.01,6.959-0.02,10.439-0.01c-2.631,12.13-7.16,24.62-17.07,32.71
		c-10.439,8.471-24.75,9.32-37.57,7.75c-13.109-1.45-25.221-9.54-31.619-21.05c-7.301-13.13-8.49-28.67-7.74-43.4
		C710.248,125.5,713.838,115.21,719.656,106.5z"/>
	<path fill="#FFFFFF" d="M814.188,88.51c3.49-0.01,6.99-0.01,10.49,0c0.01,33.41,0.01,66.82,0,100.23
		c17.578,0.029,35.17,0,52.75,0.02c0,3.08,0,6.16,0.01,9.24c-21.09,0-42.17,0-63.25,0C814.188,161.5,814.188,125,814.188,88.51z"/>
	<g>
		<path fill="#FFFFFF" d="M1075.947,88.51c15.75,0.27,31.57-0.72,47.279,0.85c12.631,1.18,25.551,7.3,32.031,18.62
			c5.779,9.21,7.229,20.29,7.83,30.94c0.398,13.261-1.311,27.09-8.182,38.7c-5.158,9.26-14.51,15.85-24.68,18.49
			c-9.439,2.689-19.33,1.72-29.01,1.89c-8.43,0-16.85,0-25.279,0C1075.938,161.5,1075.938,125.01,1075.947,88.51z M1086.688,97.5
			c-0.02,30.49,0.02,60.98-0.02,91.47c9.83,0.07,19.658,0,29.5,0.05c9.209-0.14,18.879-2.8,25.43-9.609
			c7.529-8.19,10.42-19.5,10.869-30.37c0.58-12.6-0.549-25.97-7.119-37.04c-5.17-8.8-15.301-13.66-25.26-14.17
			C1108.967,97.17,1097.816,97.64,1086.688,97.5z"/>
	</g>
	<path fill="#FFFFFF" d="M983.188,89.51c3.539,0,7.09,0,10.639-0.08c0.311,23.84-0.109,47.69,0.211,71.53
		c0.17,9.41,2.52,19.851,10.4,25.851c6.91,5.64,16.35,5.659,24.799,4.979c7.191-0.721,14.201-4.4,18.131-10.59
		c4.311-6.53,5.209-14.601,5.561-22.23c0.029-23.07-0.01-46.14,0.02-69.21c3.57-0.01,7.15-0.01,10.73,0
		c0.01,20.41,0,40.81,0.01,61.221c0,9.06,0.41,18.38-2.611,27.06c-3.309,10.35-12.219,18.51-22.709,21.2
		c-8.5,2.14-17.439,2.3-26.09,1.109c-8.291-1.069-16.439-5.119-21.34-12.039c-5.35-7.261-7.57-16.431-7.76-25.33
		C983.188,138.49,983.188,114,983.188,89.51z"/>
</g>
</svg>
